# xmcd
# 
# Track frame offsets:
#     150
#     14750
#     44005
#     54392
#     67262
#     77325
#     89182
#     103062
#     115295
#     128762
#     140300
#     154391
#     180854
#     197821
#     216977
#     236097
#     246531
#     271367
#     286571
#     302725
# 
# Disc length: 4265
# 
# Revision: 0
# Processed by: cddbd v1.5.2PL0 Copyright (c) Steve Scherf et al.
# Submitted via: fre:ac v1.0.31
# 
DISCID=2f10a714
DTITLE=Blues - Stress Relief Disc 2
DYEAR=0
DGENRE=Blues
TTITLE0=Jump The Boogie
TTITLE1=Going Down
TTITLE2=Jennie Lee
TTITLE3=Dark As Night
TTITLE4=Without You
TTITLE5=I Don't Know How You Do The Things You Do
TTITLE6=The Mover
TTITLE7=Boomer's Bar
TTITLE8=Waiting For The Bus
TTITLE9=Dirty
TTITLE10=Blue Pancakes
TTITLE11=Blues In C
TTITLE12=Gotta Be Down
TTITLE13=I'm Not The Enemy
TTITLE14=Live It Up
TTITLE15=I Ain't Working For The Man
TTITLE16=Drivin' Wheel
TTITLE17=She's My Bud
TTITLE18=Jackson
TTITLE19=Bus Stop
EXTD=
EXTT0=
EXTT1=
EXTT2=
EXTT3=
EXTT4=
EXTT5=
EXTT6=
EXTT7=
EXTT8=
EXTT9=
EXTT10=
EXTT11=
EXTT12=
EXTT13=
EXTT14=
EXTT15=
EXTT16=
EXTT17=
EXTT18=
EXTT19=
PLAYORDER=
